# xmcd CD database file
# Generated: Wed Sep 24 16:23:47 2003 by KSCD
# 
# Track frame offsets:
#       150
#       15010
#       31822
#       48912
#       73452
#       93002
#       107832
#       123910
#       148595
#       163380
#       180540
#
# Disc length: 2612 seconds
#
# Revision: 1
# Processed by: cddbd v1.4PL0 Copyright (c) Steve Scherf et al.
# Submitted via: Kscd 1.3.3
#
DISCID=8a0a320b
DTITLE=North Mississippi Allstars - 51 Phantom
DYEAR=1900
DGENRE=
TTITLE0=51 Phantom
TTITLE1=Snakes In My Bushes
TTITLE2=Sugartown
TTITLE3=Lord Have Mercy
TTITLE4=Storm
TTITLE5=Freedom Highway
TTITLE6=Circle In The Sky
TTITLE7=Ship
TTITLE8=Leavin'
TTITLE9=Up Over Yonder
TTITLE10=Mud
EXTD=
EXTT0=
EXTT1=
EXTT2=
EXTT3=
EXTT4=
EXTT5=
EXTT6=
EXTT7=
EXTT8=
EXTT9=
EXTT10=
PLAYORDER=
